<svg width="138" height="119" viewBox="0 0 138 119" fill="none" xmlns="http://www.w3.org/2000/svg">
<g clip-path="url(#clip0_67_4685)">
<path d="M50.4618 46.2818C62.3884 47.0985 72.7189 38.0921 73.5356 26.1655C74.3524 14.2388 65.346 3.9083 53.4193 3.0916C41.4927 2.27489 31.1621 11.2813 30.3454 23.2079C29.5287 35.1346 38.5351 45.4651 50.4618 46.2818Z" fill="url(#paint0_radial_67_4685)"/>
<path d="M133.195 65.9767L82.2441 58.3099L78.001 86.5084L128.952 94.1752L133.195 65.9767Z" fill="url(#paint1_linear_67_4685)"/>
<path d="M82.8926 65.8989L129.598 72.9293" stroke="white" stroke-width="0.87" stroke-miterlimit="10"/>
<path d="M81.8677 72.7404L128.567 79.7704" stroke="white" stroke-width="0.87" stroke-miterlimit="10"/>
<path d="M80.8369 79.5753L127.536 86.6115" stroke="white" stroke-width="0.87" stroke-miterlimit="10"/>
<path d="M90.3073 60.7723L86.4243 86.5408" stroke="white" stroke-width="0.93" stroke-miterlimit="10"/>
<path d="M98.5568 62.0138L94.6801 87.7827" stroke="white" stroke-width="0.93" stroke-miterlimit="10"/>
<path d="M106.813 63.2558L102.93 89.0242" stroke="white" stroke-width="0.93" stroke-miterlimit="10"/>
<path d="M115.062 64.4973L111.186 90.2662" stroke="white" stroke-width="0.93" stroke-miterlimit="10"/>
<path d="M123.312 65.7388L119.435 91.5077" stroke="white" stroke-width="0.93" stroke-miterlimit="10"/>
<path d="M53.7 53.9414L3.71973 66.4609L10.6486 94.1223L60.6289 81.6028L53.7 53.9414Z" fill="url(#paint2_linear_67_4685)"/>
<path d="M10.5752 86.5006L56.3917 75.024" stroke="white" stroke-width="0.87" stroke-miterlimit="10"/>
<path d="M8.89707 79.7964L54.7076 68.3132" stroke="white" stroke-width="0.87" stroke-miterlimit="10"/>
<path d="M7.21293 73.0856L53.0294 61.609" stroke="white" stroke-width="0.87" stroke-miterlimit="10"/>
<path d="M18.4444 90.8968L12.1128 65.6177" stroke="white" stroke-width="0.93" stroke-miterlimit="10"/>
<path d="M26.5381 88.871L20.2065 63.5919" stroke="white" stroke-width="0.93" stroke-miterlimit="10"/>
<path d="M34.6324 86.8389L28.3008 61.5598" stroke="white" stroke-width="0.93" stroke-miterlimit="10"/>
<path d="M42.7324 84.8136L36.3945 59.534" stroke="white" stroke-width="0.93" stroke-miterlimit="10"/>
<path d="M50.8262 82.7878L44.4883 57.5082" stroke="white" stroke-width="0.93" stroke-miterlimit="10"/>
<path d="M60.0583 107.911C81.1029 109.352 99.3311 93.4607 100.772 72.4161C102.213 51.3715 86.3215 33.1433 65.2769 31.7023C44.2324 30.2612 26.0041 46.1529 24.5631 67.1975C23.122 88.2421 39.0138 106.47 60.0583 107.911Z" fill="#FF5252"/>
<path d="M57.0979 80.4981C68.9063 81.3067 79.0498 73.6267 79.7539 63.3442C80.458 53.0618 71.4562 44.0707 59.6477 43.2621C47.8392 42.4535 37.6958 50.1336 36.9917 60.416C36.2876 70.6984 45.2894 79.6895 57.0979 80.4981Z" fill="white"/>
<path d="M103.744 101.145C108.763 101.489 113.111 97.6987 113.455 92.6791C113.799 87.6596 110.008 83.3118 104.989 82.9681C99.969 82.6243 95.6213 86.4148 95.2775 91.4344C94.9338 96.4539 98.7243 100.802 103.744 101.145Z" fill="#FF5252"/>
<path d="M90.056 75.7334L106.192 85.0906L98.5827 94.9972L83.3784 82.0108L90.056 75.7334Z" fill="#FF5252"/>
<path d="M16.6901 99.244C21.7097 99.5878 26.0575 95.7973 26.4012 90.7777C26.7449 85.7582 22.9544 81.4104 17.9349 81.0666C12.9153 80.7229 8.56755 84.5134 8.22382 89.533C7.8801 94.5525 11.6706 98.9003 16.6901 99.244Z" fill="#FF5252"/>
<path d="M31.5523 74.1958L15.3506 83.4381L22.8836 93.3888L38.1828 80.5181L31.5523 74.1958Z" fill="#FF5252"/>
<path d="M51.3288 57.7174C52.396 57.7905 53.3203 56.9846 53.3934 55.9174C53.4665 54.8502 52.6606 53.9259 51.5934 53.8528C50.5262 53.7797 49.6019 54.5856 49.5288 55.6528C49.4557 56.72 50.2616 57.6443 51.3288 57.7174Z" fill="#211815"/>
<path d="M59.8512 58.301C60.9184 58.3741 61.8428 57.5682 61.9159 56.501C61.9889 55.4338 61.1831 54.5095 60.1159 54.4364C59.0487 54.3633 58.1244 55.1692 58.0513 56.2364C57.9782 57.3035 58.7841 58.2279 59.8512 58.301Z" fill="#211815"/>
<path d="M52.5537 26.259C52.5537 26.259 50.9397 31.3592 55.8769 35.6305" stroke="#353535" stroke-width="3.49" stroke-linecap="round" stroke-linejoin="round"/>
<path d="M51.6312 29.1996C54.1235 29.3702 56.2824 27.4881 56.4531 24.9957C56.6237 22.5033 54.7416 20.3445 52.2492 20.1738C49.7568 20.0031 47.598 21.8853 47.4273 24.3777C47.2566 26.8701 49.1388 29.0289 51.6312 29.1996Z" fill="#F3DE35"/>
<path d="M52.7339 102.49C52.9091 99.9316 50.9785 97.7157 48.4218 97.5406C45.8651 97.3655 43.6505 99.2976 43.4753 101.856L43.0619 107.892C42.8867 110.451 44.8173 112.666 47.374 112.842C49.9307 113.017 52.1454 111.085 52.3206 108.526L52.7339 102.49Z" fill="#FF5252"/>
<path d="M78.9881 100.542C78.0736 98.1461 75.3914 96.9448 72.9972 97.8587C70.603 98.7726 69.4035 101.456 70.318 103.851L72.4756 109.504C73.3901 111.9 76.0724 113.101 78.4666 112.187C80.8608 111.273 82.0603 108.59 81.1458 106.194L78.9881 100.542Z" fill="#FF5252"/>
<path d="M70.8153 65.8876C74.2046 66.1197 77.1402 63.5603 77.3723 60.1711C77.6044 56.7819 75.045 53.8462 71.6558 53.6141C68.2666 53.382 65.3309 55.9414 65.0988 59.3306C64.8667 62.7199 67.4261 65.6555 70.8153 65.8876Z" fill="url(#paint3_radial_67_4685)"/>
<path d="M43.0922 66.9993C46.4814 67.2313 49.4171 64.672 49.6492 61.2827C49.8813 57.8935 47.3219 54.9578 43.9327 54.7257C40.5434 54.4937 37.6078 57.053 37.3757 60.4423C37.1436 63.8315 39.703 66.7672 43.0922 66.9993Z" fill="url(#paint4_radial_67_4685)"/>
<path d="M46.3369 60.0694C46.3369 60.0694 46.4145 63.3693 54.1855 64.2113C61.9565 65.0533 67.1582 61.3055 66.5268 59.9975" stroke="#211815" stroke-width="3.49" stroke-linecap="round" stroke-linejoin="round"/>
</g>
<defs>
<radialGradient id="paint0_radial_67_4685" cx="0" cy="0" r="1" gradientUnits="userSpaceOnUse" gradientTransform="translate(51.9405 24.6867) rotate(3.91735) scale(21.6457 21.6457)">
<stop stop-color="#E99000"/>
<stop offset="1" stop-color="white" stop-opacity="0"/>
</radialGradient>
<linearGradient id="paint1_linear_67_4685" x1="78.8209" y1="74.4212" x2="132.359" y2="78.0873" gradientUnits="userSpaceOnUse">
<stop stop-color="#000054"/>
<stop offset="1" stop-color="#0094DE"/>
</linearGradient>
<linearGradient id="paint2_linear_67_4685" x1="3.34323" y1="72.0568" x2="61.0162" y2="76.0061" gradientUnits="userSpaceOnUse">
<stop stop-color="#000054"/>
<stop offset="1" stop-color="#0094DE"/>
</linearGradient>
<radialGradient id="paint3_radial_67_4685" cx="0" cy="0" r="1" gradientUnits="userSpaceOnUse" gradientTransform="translate(71.2356 59.7509) rotate(3.91735) scale(6.15113)">
<stop stop-color="#E9B6A2"/>
<stop offset="1" stop-color="white"/>
</radialGradient>
<radialGradient id="paint4_radial_67_4685" cx="0" cy="0" r="1" gradientUnits="userSpaceOnUse" gradientTransform="translate(43.5124 60.8625) rotate(3.91735) scale(6.15113)">
<stop stop-color="#E9B6A2"/>
<stop offset="1" stop-color="white"/>
</radialGradient>
<clipPath id="clip0_67_4685">
<rect width="129.136" height="109.907" fill="white" transform="translate(8.27148) rotate(3.91735)"/>
</clipPath>
</defs>
</svg>
